<svg width="160" height="48" viewBox="0 0 160 48" fill="none" xmlns="http://www.w3.org/2000/svg">
  <rect width="160" height="48" rx="24" fill="#F7F7F2"/>
  <circle cx="24" cy="24" r="16" fill="#E8FF46"/>
  <path d="M18 28L23.4 16H24.8L30 28H26.9L24.1 21.1L21.2 28H18Z" fill="#111111"/>
  <path d="M32.5 18H35.5V28H32.5V18Z" fill="#111111"/>
  <path d="M42 18H45V25.5H49.7V28H42V18Z" fill="#111111"/>
  <path d="M61 17.6C63.7 17.6 65.8 18.6 67.1 20.2L64.9 22.1C64 21.1 62.8 20.5 61.2 20.5C58.3 20.5 56.3 22.4 56.3 25.1C56.3 27.8 58.3 29.7 61.2 29.7C62.8 29.7 64 29.1 64.9 28.1L67.1 30C65.8 31.6 63.7 32.6 61 32.6C56.2 32.6 52.9 29.5 52.9 25.1C52.9 20.7 56.2 17.6 61 17.6Z" fill="#111111"/>
  <path d="M73 18H76V32H73V18Z" fill="#111111"/>
  <path d="M82.2 18H88.6C93 18 96 20.7 96 25C96 29.3 93 32 88.6 32H82.2V18ZM88.4 29.3C90.7 29.3 92.6 27.9 92.6 25C92.6 22.1 90.7 20.7 88.4 20.7H85.6V29.3H88.4Z" fill="#111111"/>
  <path d="M102 18H105V32H102V18Z" fill="#111111"/>
  <path d="M111.2 18H117.6C122 18 125 20.7 125 25C125 29.3 122 32 117.6 32H111.2V18ZM117.4 29.3C119.7 29.3 121.6 27.9 121.6 25C121.6 22.1 119.7 20.7 117.4 20.7H114.6V29.3H117.4Z" fill="#111111"/>
  <path d="M130.2 18H140.8V20.7H133.6V23.4H139.9V26H133.6V29.3H141V32H130.2V18Z" fill="#111111"/>
</svg>
